<svg width="45" height="40" viewBox="0 0 45 40" fill="none" xmlns="http://www.w3.org/2000/svg">
<path d="M22.3585 39.1226C31.1714 39.1226 38.3156 31.9784 38.3156 23.1655V11.2052C38.3156 7.64875 35.4691 4.76575 31.9577 4.76575H12.7593C9.24787 4.76575 6.40137 7.64875 6.40137 11.2052V23.1655C6.40137 31.9784 13.5456 39.1226 22.3585 39.1226Z" fill="#634C9F"/>
<path d="M15.0292 23.8581C15.3617 25.3733 16.3591 27.3935 17.5227 27.7302C24.2062 30.0381 31.3063 29.9559 38.3155 30.0531V11.2052C38.3155 7.64874 35.469 4.76575 31.9576 4.76575H12.7592C10.8627 4.76575 9.16135 5.60772 7.99658 6.94147C13.5006 10.3341 13.3094 17.8404 15.0292 23.8581Z" fill="#FACC15"/>
<path d="M36.7976 30.99C36.6699 30.99 36.5415 30.9848 36.4123 30.9742L20.0381 29.6204C17.5265 29.4126 15.4061 27.6154 14.7617 25.1483L11.5694 12.9273C11.0034 10.7543 10.4179 8.50756 7.9167 7.82688L0.79662 6.3443C0.257208 6.23201 -0.090377 5.69797 0.0206638 5.15148C0.131538 4.60498 0.659649 4.2531 1.1984 4.3654L8.39926 5.86633C12.0463 6.83844 12.8854 10.0598 13.4982 12.412L13.5391 12.5692L16.6901 24.6316C17.1188 26.2729 18.5294 27.4684 20.2003 27.6068L36.5747 28.9606C37.8766 29.0683 39.0729 28.2208 39.4202 26.946L42.4368 15.8711L21.5278 14.1315C21.0755 14.0942 20.6488 14.2732 20.3559 14.6236C20.063 14.9741 19.9588 15.4302 20.07 15.8753L21.0032 19.6134C21.3117 20.8488 22.36 21.7647 23.612 21.8925L33.4695 22.8986C33.9729 22.95 34.4327 22.6464 34.5906 22.161C34.6927 21.8465 34.6486 21.5073 34.4694 21.2303C34.2901 20.9534 34.0005 20.777 33.6748 20.7465L25.3966 19.971C24.8483 19.9197 24.4448 19.4277 24.4955 18.8721C24.5462 18.3167 25.0293 17.9078 25.5805 17.9593L33.8587 18.7347C34.7927 18.8223 35.6234 19.3282 36.1377 20.1229C36.6518 20.9174 36.7785 21.8908 36.4851 22.7931C36.0321 24.1859 34.7081 25.056 33.2696 24.9087L23.412 23.9026C21.328 23.6899 19.5828 22.1652 19.0693 20.1087L18.1361 16.3706C17.865 15.2852 18.1193 14.1727 18.8336 13.3183C19.5479 12.4637 20.5893 12.0268 21.6911 12.1179L45 14.0572L41.3431 27.4832C40.7758 29.5657 38.9001 30.9898 36.7976 30.99Z" fill="#634C9F"/>
<path d="M22.3701 33.4785C22.3701 34.9973 21.1545 36.2285 19.655 36.2285C18.1556 36.2285 16.9399 34.9973 16.9399 33.4785C16.9399 31.9597 18.1556 30.7287 19.655 30.7287C21.1545 30.7287 22.3701 31.9597 22.3701 33.4785Z" fill="#DC2626"/>
<path d="M35.8676 34.3144C35.8676 35.2322 35.1332 35.976 34.2273 35.976C33.3213 35.976 32.5869 35.2322 32.5869 34.3144C32.5869 33.3969 33.3213 32.6531 34.2273 32.6531C35.1332 32.6531 35.8676 33.3969 35.8676 34.3144Z" fill="#DC2626"/>
<path d="M19.5172 9.04243C19.5172 10.3752 18.4505 11.4555 17.1347 11.4555C15.8188 11.4555 14.752 10.3752 14.752 9.04243C14.752 7.7097 15.8188 6.62916 17.1347 6.62916C18.4505 6.62916 19.5172 7.7097 19.5172 9.04243Z" fill="#F25321"/>
<path d="M23.9355 3.26198C23.9355 5.0636 22.4936 6.52395 20.7148 6.52395C18.9362 6.52395 17.4941 5.0636 17.4941 3.26198C17.4941 1.46053 18.9362 3.33786e-06 20.7148 3.33786e-06C22.4936 3.33786e-06 23.9355 1.46053 23.9355 3.26198Z" fill="#634C9F"/>
<path d="M23.1553 8.23801C23.1553 8.86819 22.6509 9.37916 22.0286 9.37916C21.4064 9.37916 20.9019 8.86819 20.9019 8.23801C20.9019 7.60784 21.4064 7.09687 22.0286 7.09687C22.6509 7.09687 23.1553 7.60784 23.1553 8.23801Z" fill="#634C9F"/>
<path d="M30.1479 4.91761C30.1479 6.37426 28.9818 7.55514 27.5436 7.55514C26.1052 7.55514 24.9395 6.37426 24.9395 4.91761C24.9395 3.46079 26.1052 2.27992 27.5436 2.27992C28.9818 2.27992 30.1479 3.46079 30.1479 4.91761Z" fill="#F25321"/>
<path d="M32.648 9.8701C32.648 11.0557 31.699 12.0167 30.5286 12.0167C29.358 12.0167 28.4092 11.0557 28.4092 9.8701C28.4092 8.68467 29.358 7.72351 30.5286 7.72351C31.699 7.72351 32.648 8.68467 32.648 9.8701Z" fill="#F25321"/>
<path d="M41.6451 10.8102C41.6451 11.9958 40.6961 12.9568 39.5257 12.9568C38.3551 12.9568 37.4062 11.9958 37.4062 10.8102C37.4062 9.6248 38.3551 8.66363 39.5257 8.66363C40.6961 8.66363 41.6451 9.6248 41.6451 10.8102Z" fill="#634C9F"/>
<path d="M26.9133 10.2489C26.9133 11.0394 26.2808 11.68 25.5003 11.68C24.7201 11.68 24.0874 11.0394 24.0874 10.2489C24.0874 9.45862 24.7201 8.81784 25.5003 8.81784C26.2808 8.81784 26.9133 9.45862 26.9133 10.2489Z" fill="#634C9F"/>
<path d="M35.4736 5.05787C35.4736 6.04967 34.6797 6.85376 33.7004 6.85376C32.7213 6.85376 31.9272 6.04967 31.9272 5.05787C31.9272 4.06606 32.7213 3.26197 33.7004 3.26197C34.6797 3.26197 35.4736 4.06606 35.4736 5.05787Z" fill="#634C9F"/>
<path d="M36.2214 10.8102C36.2214 11.6005 35.5889 12.2413 34.8085 12.2413C34.0282 12.2413 33.3955 11.6005 33.3955 10.8102C33.3955 10.0199 34.0282 9.37915 34.8085 9.37915C35.5889 9.37915 36.2214 10.0199 36.2214 10.8102Z" fill="#634C9F"/>
<path d="M37.8581 7.55513C37.8581 8.2215 37.3247 8.76177 36.6668 8.76177C36.0089 8.76177 35.4756 8.2215 35.4756 7.55513C35.4756 6.88877 36.0089 6.34867 36.6668 6.34867C37.3247 6.34867 37.8581 6.88877 37.8581 7.55513Z" fill="#F25321"/>
</svg>
